<svg xmlns="http://www.w3.org/2000/svg" xmlns:xlink="http://www.w3.org/1999/xlink" contentStyleType="text/css" data-diagram-type="DESCRIPTION" height="722px" preserveAspectRatio="none" style="width:651px;height:722px;background:#F5F4EF;" version="1.1" viewBox="0 0 651 722" width="651px" zoomAndPan="magnify"><defs/><g><rect fill="#F5F4EF" height="722" style="stroke:none;stroke-width:1;" width="651" x="0" y="0"/><!--cluster data--><g class="cluster" data-entity="data" data-source-line="47" data-uid="ent0002" id="cluster_data"><polygon fill="#EDEAE3" points="55,6,215.7202,6,222.7202,30.9551,285,30.9551,285,372.33,55,372.33,55,6" style="stroke:#DCD7CB;stroke-width:1;"/><line style="stroke:#DCD7CB;stroke-width:1;" x1="55" x2="222.7202" y1="30.9551" y2="30.9551"/><text fill="#575247" font-family="JetBrains Mono" font-size="11" lengthAdjust="spacing" textLength="148.7202" x="62" y="21.6348">CONTEXT (THE DATA PATH)</text></g><!--cluster service--><g class="cluster" data-entity="service" data-source-line="54" data-uid="ent0007" id="cluster_service"><polygon fill="#EDEAE3" points="309,194.4,479.0068,194.4,486.0068,219.3551,634,219.3551,634,573.04,309,573.04,309,194.4" style="stroke:#DCD7CB;stroke-width:1;"/><line style="stroke:#DCD7CB;stroke-width:1;" x1="309" x2="486.0068" y1="219.3551" y2="219.3551"/><text fill="#575247" font-family="JetBrains Mono" font-size="11" lengthAdjust="spacing" textLength="158.0068" x="316" y="210.0348">SERVICE (THE REQUEST PATH)</text></g><!--cluster infra--><g class="cluster" data-entity="infra" data-source-line="62" data-uid="ent0013" id="cluster_infra"><polygon fill="#EDEAE3" points="16,606.04,125.5444,606.04,132.5444,630.9951,490,630.9951,490,715.66,16,715.66,16,606.04" style="stroke:#DCD7CB;stroke-width:1;"/><line style="stroke:#DCD7CB;stroke-width:1;" x1="16" x2="132.5444" y1="630.9951" y2="630.9951"/><text fill="#575247" font-family="JetBrains Mono" font-size="11" lengthAdjust="spacing" textLength="97.5444" x="23" y="621.6748">EXECUTION LAYER</text></g><!--entity sources--><g class="entity" data-entity="sources" data-source-line="48" data-uid="ent0003" id="entity_sources"><rect fill="#FFFFFF" height="53.0879" style="stroke:#201F1E;stroke-width:1;" width="137.8018" x="101.1" y="43"/><text fill="#201F1E" font-family="Space Grotesk" font-size="13" lengthAdjust="spacing" textLength="107.1357" x="116.433" y="68.5684">Business sources</text><text fill="#797263" font-family="Space Grotesk" font-size="10" lengthAdjust="spacing" textLength="111.8018" x="114.1" y="80.9785">applications, files, APIs</text></g><!--entity ingest--><g class="entity" data-entity="ingest" data-source-line="49" data-uid="ent0004" id="entity_ingest"><rect fill="#FFFFFF" height="41.3105" style="stroke:#201F1E;stroke-width:1;" width="158.7168" x="90.64" y="123.09"/><text fill="#201F1E" font-family="Space Grotesk" font-size="13" lengthAdjust="spacing" textLength="132.7168" x="103.64" y="148.6584">Ingestion and quality</text></g><!--entity chunk--><g class="entity" data-entity="chunk" data-source-line="50" data-uid="ent0005" id="entity_chunk"><rect fill="#FFFFFF" height="41.3105" style="stroke:#201F1E;stroke-width:1;" width="197.8564" x="71.07" y="231.4"/><text fill="#201F1E" font-family="Space Grotesk" font-size="13" lengthAdjust="spacing" textLength="171.8564" x="84.07" y="256.9684">Normalisation and splitting</text></g><!--entity index--><g class="entity" data-entity="index" data-source-line="51" data-uid="ent0006" id="entity_index"><rect fill="#FFFFFF" height="56.6211" style="stroke:#201F1E;stroke-width:1;" width="139.5112" x="129.24" y="299.71"/><text fill="#201F1E" font-family="Space Grotesk" font-size="13" lengthAdjust="spacing" textLength="80.8057" x="158.5928" y="325.2784">Search index</text><text fill="#E11FD0" font-family="Space Grotesk" font-size="13" font-weight="bold" lengthAdjust="spacing" textLength="18.2114" x="142.24" y="340.5889">(2)</text><text fill="#201F1E" font-family="Space Grotesk" font-size="13" lengthAdjust="spacing" textLength="4.1133" x="160.4514" y="340.5889">&#160;</text><text fill="#797263" font-family="Space Grotesk" font-size="10" lengthAdjust="spacing" textLength="91.1865" x="164.5647" y="341.2217">replaceable engine</text></g><!--entity app--><g class="entity" data-entity="app" data-source-line="55" data-uid="ent0008" id="entity_app"><rect fill="#FFFFFF" height="41.3105" style="stroke:#201F1E;stroke-width:1;" width="154.1782" x="347.91" y="231.4"/><text fill="#201F1E" font-family="Space Grotesk" font-size="13" lengthAdjust="spacing" textLength="128.1782" x="360.91" y="256.9684">Business application</text></g><!--entity guards--><g class="entity" data-entity="guards" data-source-line="56" data-uid="ent0009" id="entity_guards"><rect fill="#FFFFFF" height="53.0879" style="stroke:#201F1E;stroke-width:1;" width="200.2178" x="324.89" y="301.48"/><text fill="#201F1E" font-family="Space Grotesk" font-size="13" lengthAdjust="spacing" textLength="174.2178" x="337.89" y="327.0484">Input and output guardrails</text><text fill="#797263" font-family="Space Grotesk" font-size="10" lengthAdjust="spacing" textLength="146.5576" x="351.7201" y="339.4585">validation, segmentation, logs</text></g><!--entity gateway--><g class="entity" data-entity="gateway" data-source-line="57" data-uid="ent0010" id="entity_gateway"><rect fill="#FFFFFF" height="53.0879" style="stroke:#201F1E;stroke-width:1;" width="178.8076" x="329.6" y="420.33"/><text fill="#201F1E" font-family="Space Grotesk" font-size="13" lengthAdjust="spacing" textLength="113.8579" x="362.0749" y="445.8984">Inference gateway</text><text fill="#797263" font-family="Space Grotesk" font-size="10" lengthAdjust="spacing" textLength="152.8076" x="342.6" y="458.3085">quotas, cache, routing, fallback</text></g><!--entity managed--><g class="entity" data-entity="managed" data-source-line="58" data-uid="ent0011" id="entity_managed"><rect fill="#FFFFFF" height="56.6211" style="stroke:#201F1E;stroke-width:1;" width="126.5723" x="324.71" y="500.42"/><text fill="#201F1E" font-family="Space Grotesk" font-size="13" lengthAdjust="spacing" textLength="100.5723" x="337.71" y="525.9884">Managed model</text><text fill="#E11FD0" font-family="Space Grotesk" font-size="13" font-weight="bold" lengthAdjust="spacing" textLength="18.2114" x="378.8904" y="541.2989">(1)</text></g><!--entity selfhosted--><g class="entity" data-entity="selfhosted" data-source-line="59" data-uid="ent0012" id="entity_selfhosted"><rect fill="#FFFFFF" height="56.6211" style="stroke:#201F1E;stroke-width:1;" width="142.689" x="475.66" y="500.42"/><text fill="#201F1E" font-family="Space Grotesk" font-size="13" lengthAdjust="spacing" textLength="116.689" x="488.66" y="525.9884">Self-hosted model</text><text fill="#E11FD0" font-family="Space Grotesk" font-size="13" font-weight="bold" lengthAdjust="spacing" textLength="18.2114" x="537.8988" y="541.2989">(1)</text></g><!--entity iac--><g class="entity" data-entity="iac" data-source-line="63" data-uid="ent0014" id="entity_iac"><rect fill="#FFFFFF" height="56.6211" style="stroke:#201F1E;stroke-width:1;" width="441.9556" x="32.02" y="643.04"/><text fill="#201F1E" font-family="Space Grotesk" font-size="13" lengthAdjust="spacing" textLength="415.9556" x="45.02" y="668.6084">Infrastructure as code, separate environments, secrets and access</text><text fill="#E11FD0" font-family="Space Grotesk" font-size="13" font-weight="bold" lengthAdjust="spacing" textLength="18.2114" x="198.3711" y="683.9189">(3)</text><text fill="#201F1E" font-family="Space Grotesk" font-size="13" lengthAdjust="spacing" textLength="4.1133" x="216.5825" y="683.9189">&#160;</text><text fill="#797263" font-family="Space Grotesk" font-size="10" lengthAdjust="spacing" textLength="86.9287" x="220.6958" y="684.5517">reversible hosting</text></g><!--link sources to ingest--><g class="link" data-entity-1="sources" data-entity-2="ingest" data-source-line="66" data-uid="lnk15" id="link_sources_ingest"><path d="M170,96.2 C170,104.96 170,108.61 170,116.84" fill="none" id="sources-to-ingest" style="stroke:#575247;stroke-width:1;"/><polygon fill="#575247" points="170,122.84,174,113.84,170,117.84,166,113.84,170,122.84" style="stroke:#575247;stroke-width:1;"/></g><!--link ingest to chunk--><g class="link" data-entity-1="ingest" data-entity-2="chunk" data-source-line="67" data-uid="lnk16" id="link_ingest_chunk"><path d="M170,164.74 C170,183.75 170,206.17 170,225.15" fill="none" id="ingest-to-chunk" style="stroke:#575247;stroke-width:1;"/><polygon fill="#575247" points="170,231.15,174,222.15,170,226.15,166,222.15,170,231.15" style="stroke:#575247;stroke-width:1;"/></g><!--link chunk to index--><g class="link" data-entity-1="chunk" data-entity-2="index" data-source-line="68" data-uid="lnk17" id="link_chunk_index"><path d="M177.77,272.88 C180.96,281.01 182.51,284.9739 185.96,293.7739" fill="none" id="chunk-to-index" style="stroke:#575247;stroke-width:1;"/><polygon fill="#575247" points="188.15,299.36,188.5891,289.5209,186.325,294.705,181.141,292.4409,188.15,299.36" style="stroke:#575247;stroke-width:1;"/></g><!--link app to guards--><g class="link" data-entity-1="app" data-entity-2="guards" data-source-line="70" data-uid="lnk18" id="link_app_guards"><path d="M425,272.88 C425,281.52 425,285.77 425,295.01" fill="none" id="app-to-guards" style="stroke:#575247;stroke-width:1;"/><polygon fill="#575247" points="425,301.01,429,292.01,425,296.01,421,292.01,425,301.01" style="stroke:#575247;stroke-width:1;"/></g><!--link guards to gateway--><g class="link" data-entity-1="guards" data-entity-2="gateway" data-source-line="71" data-uid="lnk19" id="link_guards_gateway"><path d="M423.67,354.95 C422.67,374.32 421.6267,394.6778 420.6367,414.0178" fill="none" id="guards-to-gateway" style="stroke:#575247;stroke-width:1;"/><polygon fill="#575247" points="420.33,420.01,424.7849,411.2263,420.5856,415.0165,416.7953,410.8173,420.33,420.01" style="stroke:#575247;stroke-width:1;"/></g><!--link index to gateway--><g class="link" data-entity-1="index" data-entity-2="gateway" data-source-line="72" data-uid="lnk20" id="link_index_gateway"><path d="M251.14,356.71 C287.22,375.88 329.6207,398.4061 364.9507,417.1661" fill="none" id="index-to-gateway" style="stroke:#575247;stroke-width:1;"/><polygon fill="#575247" points="370.25,419.98,364.177,412.2264,365.834,417.6351,360.4252,419.292,370.25,419.98" style="stroke:#575247;stroke-width:1;"/><text fill="#797263" font-family="JetBrains Mono" font-size="10" lengthAdjust="spacing" textLength="36.6553" x="345.56" y="401.998">context</text></g><!--link gateway to managed--><g class="link" data-entity-1="gateway" data-entity-2="managed" data-source-line="73" data-uid="lnk21" id="link_gateway_managed"><path d="M409.02,473.58 C405.73,482.06 404.22,485.9361 400.88,494.5461" fill="none" id="gateway-to-managed" style="stroke:#575247;stroke-width:1;"/><polygon fill="#575247" points="398.71,500.14,405.6942,493.1959,400.5183,495.4785,398.2357,490.3026,398.71,500.14" style="stroke:#575247;stroke-width:1;"/></g><!--link gateway to selfhosted--><g class="link" data-entity-1="gateway" data-entity-2="selfhosted" data-source-line="74" data-uid="lnk22" id="link_gateway_selfhosted"><path d="M460.56,473.8 C473.99,482.18 483.8405,488.3224 497.4705,496.8324" fill="none" id="gateway-to-selfhosted" style="stroke:#575247;stroke-width:1;"/><polygon fill="#575247" points="502.56,500.01,497.0442,491.8506,498.3188,497.362,492.8074,498.6365,502.56,500.01" style="stroke:#575247;stroke-width:1;"/></g><!--link selfhosted to iac--><g class="link" data-entity-1="selfhosted" data-entity-2="iac" data-source-line="76" data-uid="lnk23" id="link_selfhosted_iac"><path d="M504.53,557.33 C491.44,565.38 476.83,573.92 463,581.04 C418.26,604.06 371.7981,623.9849 330.7181,640.4749" fill="none" id="selfhosted-to-iac" style="stroke:#575247;stroke-width:1;"/><polygon fill="#575247" points="325.15,642.71,334.9923,643.0694,329.7901,640.8474,332.0121,635.6452,325.15,642.71" style="stroke:#575247;stroke-width:1;"/></g><!--link index to iac--><g class="link" data-entity-1="index" data-entity-2="iac" data-source-line="77" data-uid="lnk24" id="link_index_iac"><path d="M203.37,356.66 C213.52,420.78 237.6124,573.0937 247.7224,636.9937" fill="none" id="index-to-iac" style="stroke:#575247;stroke-width:1;"/><polygon fill="#575247" points="248.66,642.92,251.2044,633.4055,247.8786,637.9814,243.3027,634.6557,248.66,642.92" style="stroke:#575247;stroke-width:1;"/></g></g></svg>